<svg width="20" height="20" viewBox="0 0 20 20" fill="none" xmlns="http://www.w3.org/2000/svg">
<path d="M7.64453 9.021C6.99175 8.36822 6.66536 7.5835 6.66536 6.66683C6.66536 5.75016 6.99175 4.96544 7.64453 4.31266C8.29731 3.65989 9.08203 3.3335 9.9987 3.3335C10.9154 3.3335 11.7001 3.65989 12.3529 4.31266C13.0056 4.96544 13.332 5.75016 13.332 6.66683C13.332 7.5835 13.0056 8.36822 12.3529 9.021C11.7001 9.67377 10.9154 10.0002 9.9987 10.0002C9.08203 10.0002 8.29731 9.67377 7.64453 9.021ZM3.33203 16.6668V14.3335C3.33203 13.8613 3.4537 13.4274 3.69703 13.0318C3.94036 12.6363 4.26314 12.3341 4.66536 12.1252C5.52648 11.6946 6.40148 11.3718 7.29036 11.1568C8.17925 10.9418 9.08203 10.8341 9.9987 10.8335C10.9154 10.8329 11.8181 10.9407 12.707 11.1568C13.5959 11.3729 14.4709 11.6957 15.332 12.1252C15.7348 12.3335 16.0579 12.6357 16.3012 13.0318C16.5445 13.4279 16.6659 13.8618 16.6654 14.3335V16.6668H3.33203Z" fill="#707070"/>
</svg>
