<svg width="27" height="18" viewBox="0 0 27 18" fill="none" xmlns="http://www.w3.org/2000/svg">
<path d="M4.29663 17.2081C3.49663 17.2081 2.76863 17.0881 2.11263 16.8481C1.45663 16.6081 0.936625 16.1921 0.552625 15.6001C0.184625 14.9921 0.000625014 14.1681 0.000625014 13.1281H2.95263C2.95263 14.2801 3.04863 15.1121 3.24063 15.6241C3.44863 16.1201 3.79263 16.3681 4.27263 16.3681C4.72063 16.3681 5.04863 16.1601 5.25663 15.7441C5.48063 15.3121 5.59263 14.5201 5.59263 13.3681V5.08814C5.59263 4.36814 5.56863 3.66414 5.52063 2.97614C5.48863 2.27214 5.43263 1.57614 5.35263 0.888144H3.07263C3.00863 0.584144 3.00863 0.288144 3.07263 0.000144005C3.93663 0.0161438 4.69663 0.0321436 5.35263 0.0481434C6.00863 0.0481434 6.60863 0.0481434 7.15263 0.0481434C7.71263 0.0481434 8.28863 0.0481434 8.88063 0.0481434C9.48863 0.0321436 10.0646 0.0161438 10.6086 0.000144005C10.6726 0.288144 10.6726 0.584144 10.6086 0.888144H8.95263C8.87263 1.57614 8.80863 2.27214 8.76063 2.97614C8.72863 3.66414 8.71263 4.36814 8.71263 5.08814V13.1281C8.71263 13.8961 8.59263 14.5441 8.35263 15.0721C8.12863 15.6001 7.80863 16.0241 7.39263 16.3441C6.97663 16.6481 6.50463 16.8641 5.97662 16.9921C5.44863 17.1361 4.88863 17.2081 4.29663 17.2081ZM15.8279 17.2081C15.0279 17.2081 14.2999 17.0881 13.6439 16.8481C12.9879 16.6081 12.4679 16.1921 12.0839 15.6001C11.7159 14.9921 11.5319 14.1681 11.5319 13.1281H14.4839C14.4839 14.2801 14.5799 15.1121 14.7719 15.6241C14.9799 16.1201 15.3239 16.3681 15.8039 16.3681C16.2519 16.3681 16.5799 16.1601 16.7879 15.7441C17.0119 15.3121 17.1239 14.5201 17.1239 13.3681V5.08814C17.1239 4.36814 17.0999 3.66414 17.0519 2.97614C17.0199 2.27214 16.9639 1.57614 16.8839 0.888144H14.6039C14.5399 0.584144 14.5399 0.288144 14.6039 0.000144005C15.4679 0.0161438 16.2279 0.0321436 16.8839 0.0481434C17.5399 0.0481434 18.1399 0.0481434 18.6839 0.0481434C19.2439 0.0481434 19.8199 0.0481434 20.4119 0.0481434C21.0199 0.0321436 21.5959 0.0161438 22.1399 0.000144005C22.2039 0.288144 22.2039 0.584144 22.1399 0.888144H20.4839C20.4039 1.57614 20.3399 2.27214 20.2919 2.97614C20.2599 3.66414 20.2439 4.36814 20.2439 5.08814V13.1281C20.2439 13.8961 20.1239 14.5441 19.8839 15.0721C19.6599 15.6001 19.3399 16.0241 18.9239 16.3441C18.5079 16.6481 18.0359 16.8641 17.5079 16.9921C16.9799 17.1361 16.4199 17.2081 15.8279 17.2081ZM24.9034 13.7281L26.4634 14.5441V16.3681L24.9034 17.2081L23.3434 16.3681V14.5441L24.9034 13.7281Z" fill="#333333"/>
</svg>
